<?xml version="1.0" standalone="no"?>
<!DOCTYPE svg PUBLIC "-//W3C//DTD SVG 20010904//EN"
 "http://www.w3.org/TR/2001/REC-SVG-20010904/DTD/svg10.dtd">
<svg version="1.0" xmlns="http://www.w3.org/2000/svg"
 width="200.000000pt" height="200.000000pt" viewBox="0 0 200.000000 200.000000"
 preserveAspectRatio="xMidYMid meet">
<metadata>
Created by potrace 1.14, written by Peter Selinger 2001-2017
</metadata>
<g transform="translate(0.000000,200.000000) scale(0.100000,-0.100000)"
fill="#000000" stroke="none">
<path d="M935 1630 c-30 -39 -79 -100 -109 -138 -58 -73 -5 -40 -631 -402
l-150 -87 -3 -94 -3 -94 98 -57 c581 -335 814 -468 824 -468 6 0 180 97 387
216 246 141 389 229 410 253 42 45 232 288 232 296 0 3 -18 30 -41 60 -44 58
3 30 -806 496 l-153 88 -55 -69z m127 -31 c47 -28 233 -135 648 -374 74 -42
139 -81 144 -86 8 -7 -49 -86 -155 -212 l-24 -28 -424 245 c-232 135 -425 247
-428 250 -5 4 174 236 182 236 2 0 28 -14 57 -31z m-129 -296 c73 -42 161 -93
197 -113 47 -26 512 -295 527 -304 1 -1 -170 -101 -519 -303 l-178 -102 -312
180 c-172 99 -364 210 -426 246 -93 53 -111 68 -100 78 7 7 121 75 253 151
132 76 281 161 330 190 50 29 91 53 93 53 1 1 62 -34 135 -76z m976 -219 c17
-22 18 -29 8 -43 -6 -10 -55 -72 -107 -139 l-95 -123 -170 -98 c-93 -55 -260
-151 -370 -215 l-200 -116 -3 52 c-2 28 1 55 7 61 5 5 166 100 357 211 l348
201 94 118 c52 64 98 117 102 117 5 0 18 -12 29 -26z m-1189 -488 c113 -65
211 -124 218 -130 8 -8 12 -31 10 -64 l-3 -51 -427 247 -428 247 0 57 0 56
213 -122 c116 -67 304 -175 417 -240z"/>
<path d="M962 1485 c-29 -35 -52 -66 -52 -69 0 -4 115 -74 255 -154 33 -19 74
-42 90 -52 154 -90 400 -230 405 -230 12 0 111 131 105 139 -3 5 -132 82 -288
172 -155 89 -319 184 -363 210 -45 27 -86 49 -91 49 -5 0 -33 -29 -61 -65z
m226 -52 c41 -24 76 -43 78 -43 2 0 21 -11 42 -24 37 -23 197 -116 281 -164
61 -34 145 -83 150 -87 2 -2 -16 -28 -39 -58 l-43 -54 -181 104 c-100 58 -197
114 -216 125 -19 11 -98 57 -175 101 -77 44 -142 81 -143 83 -2 1 15 27 38 58
l42 56 47 -27 c25 -15 79 -46 119 -70z"/>
<path d="M752 1284 c-51 -30 -48 -37 33 -79 l56 -30 44 24 c25 13 45 27 45 32
0 6 -121 79 -132 79 -1 0 -22 -12 -46 -26z m138 -54 c0 -3 -10 -11 -21 -18
-18 -12 -28 -10 -70 10 -27 12 -49 26 -49 30 0 4 12 14 27 21 24 13 30 12 70
-12 24 -14 43 -28 43 -31z"/>
<path d="M593 1193 c-24 -13 -43 -28 -43 -32 0 -4 30 -24 66 -44 l66 -37 44
26 c24 14 44 29 44 33 0 6 -125 82 -132 80 -2 -1 -22 -12 -45 -26z m97 -25
c47 -27 49 -34 15 -50 -20 -9 -32 -7 -70 13 -50 26 -53 33 -27 48 25 15 39 13
82 -11z"/>
<path d="M948 1167 c-21 -12 -38 -25 -38 -29 0 -4 29 -23 65 -43 l65 -37 45
27 c25 14 45 29 45 33 0 10 -115 72 -132 72 -7 -1 -30 -11 -50 -23z m99 -22
c23 -14 43 -27 43 -29 0 -2 -11 -11 -24 -20 -23 -14 -27 -14 -70 10 -52 29
-55 36 -23 52 30 14 25 15 74 -13z"/>
<path d="M428 1098 c-21 -12 -38 -25 -38 -29 0 -4 29 -24 65 -44 l66 -36 44
26 c25 14 45 29 45 33 0 9 -115 72 -132 72 -7 0 -30 -10 -50 -22z m97 -20 c25
-12 45 -26 45 -30 0 -5 -12 -14 -26 -20 -22 -10 -32 -9 -70 11 -24 13 -44 27
-44 31 0 5 30 24 47 29 1 1 23 -9 48 -21z"/>
<path d="M788 1076 c-21 -11 -38 -24 -38 -28 0 -9 114 -78 129 -78 16 0 91 43
91 52 0 10 -118 78 -133 77 -7 -1 -29 -11 -49 -23z m96 -22 c25 -14 46 -29 46
-33 0 -4 -12 -13 -26 -19 -22 -10 -32 -8 -70 14 -50 29 -53 37 -21 52 12 6 23
11 23 11 1 1 22 -11 48 -25z"/>
<path d="M1153 1054 c-24 -14 -43 -28 -43 -32 0 -4 29 -23 64 -44 l65 -36 38
20 c53 28 61 37 43 49 -42 26 -116 68 -120 68 -3 1 -24 -11 -47 -25z m97 -26
c22 -13 40 -26 40 -29 0 -3 -11 -12 -25 -19 -22 -12 -30 -10 -70 11 -50 26
-53 33 -27 48 25 15 39 13 82 -11z"/>
<path d="M268 1007 c-21 -12 -38 -25 -38 -29 0 -8 89 -63 117 -72 15 -5 35 1
62 19 23 14 41 27 41 29 0 9 -118 76 -131 76 -8 -1 -31 -11 -51 -23z m98 -23
c24 -14 44 -29 44 -32 0 -4 -12 -12 -26 -19 -23 -11 -32 -9 -70 13 -24 14 -44
29 -44 33 0 6 34 27 48 30 2 1 23 -11 48 -25z"/>
<path d="M632 984 c-23 -14 -40 -29 -37 -34 3 -5 33 -25 67 -44 l61 -34 43 26
c24 15 44 30 44 34 0 5 -122 78 -132 78 -1 0 -22 -12 -46 -26z m99 -26 c22
-12 39 -25 39 -28 0 -4 -11 -12 -25 -18 -21 -10 -33 -8 -70 10 -49 24 -54 32
-27 47 25 15 40 13 83 -11z"/>
<path d="M993 963 c-24 -13 -43 -28 -43 -31 0 -8 13 -16 84 -56 l48 -27 44 26
c24 14 44 29 44 33 0 6 -112 73 -130 78 -3 1 -24 -9 -47 -23z m103 -31 l46
-29 -32 -13 c-29 -12 -36 -11 -76 11 -24 13 -44 25 -44 28 0 8 35 30 48 31 6
0 33 -13 58 -28z"/>
<path d="M1348 937 c-21 -12 -37 -26 -35 -31 2 -5 32 -25 68 -44 l64 -35 43
27 c23 15 40 31 37 35 -8 13 -113 71 -127 71 -7 -1 -30 -11 -50 -23z m101 -25
l49 -28 -29 -16 c-27 -16 -30 -16 -74 8 -25 14 -45 29 -45 33 0 6 33 27 48 30
1 1 25 -12 51 -27z"/>
<path d="M473 893 c-24 -13 -43 -28 -43 -32 0 -4 29 -23 64 -44 57 -32 67 -35
88 -24 36 19 72 46 67 51 -7 7 -127 76 -131 75 -2 -1 -22 -12 -45 -26z m95
-25 c23 -13 42 -26 42 -31 0 -4 -12 -13 -26 -19 -22 -10 -32 -8 -70 12 -49 27
-52 34 -26 49 25 15 32 14 80 -11z"/>
<path d="M827 868 c-20 -12 -36 -26 -34 -31 2 -6 32 -26 68 -45 l64 -35 44 28
44 27 -24 19 c-33 25 -98 59 -112 59 -7 0 -29 -10 -50 -22z m100 -23 c23 -14
43 -27 43 -29 0 -2 -11 -11 -24 -20 -23 -14 -27 -14 -70 10 -52 29 -55 36 -23
52 30 14 25 15 74 -13z"/>
<path d="M1187 844 c-45 -30 -42 -36 38 -79 l55 -29 45 24 c25 14 44 29 42 34
-4 11 -117 76 -132 75 -5 0 -27 -11 -48 -25z m97 -20 c25 -14 46 -29 46 -33 0
-4 -12 -13 -26 -19 -22 -11 -32 -8 -71 15 l-46 27 23 18 c12 10 23 18 25 18 1
0 23 -12 49 -26z"/>
<path d="M675 779 c-16 -10 -34 -20 -40 -22 -17 -6 10 -30 70 -62 l55 -29 45
24 c47 26 51 37 20 54 -11 6 -36 21 -57 34 -45 26 -54 26 -93 1z m91 -25 c24
-14 44 -28 44 -30 0 -2 -11 -11 -24 -19 -23 -15 -27 -14 -74 12 l-50 28 27 17
c14 9 27 17 29 17 2 1 23 -11 48 -25z"/>
<path d="M955 710 c-66 -39 -121 -74 -123 -79 -1 -4 12 -16 30 -25 18 -10 48
-26 65 -37 l33 -21 125 73 c69 40 125 76 125 80 0 6 -125 80 -133 79 -1 0 -56
-32 -122 -70z m175 18 c22 -13 40 -25 40 -28 0 -8 -195 -120 -209 -120 -14 0
-91 42 -91 50 0 8 193 120 208 120 7 0 31 -10 52 -22z"/>
</g>
</svg>
